<svg version="1.1" id="Capa_1" xmlns="http://www.w3.org/2000/svg" xmlns:xlink="http://www.w3.org/1999/xlink" x="0px" y="0px"
	 viewBox="0 0 427.209 427.209" style="enable-background:new 0 0 427.209 427.209;" xml:space="preserve" width="60" height="60" >
<g>
	<path d="M371.134,4.178c-2.111-3.88-6.969-5.315-10.851-3.203c-1.259,0.686-12.245,6.672-15.583,8.774
		c-0.415,0.161-2.953,1.003-10.843,1.003h-46.845c-7.89,0-10.429-0.842-10.843-1.003c-3.34-2.103-14.324-8.088-15.583-8.774
		c-3.882-2.112-8.739-0.678-10.851,3.203c-2.112,3.881-0.678,8.739,3.203,10.851c4.826,2.626,12.74,7.003,14.768,8.298
		c2.496,1.595,6.946,3.425,19.307,3.425h17.603l-30.961,180.777c-2.698,13.326-3.082,30.365-3.037,48.783
		c-19.109-22.774-47.767-37.281-79.753-37.281c-57.395,0-104.089,46.694-104.089,104.089c0,8.275,0.976,16.326,2.81,24.048H63.101
		c-4.418,0-8,3.582-8,8v8c0,17.645,14.355,32,32,32h28.711c18.954,19.736,45.592,32.041,75.052,32.041
		c57.395,0,104.089-46.694,104.089-104.089c0-14.345-2.917-28.022-8.189-40.469c-0.006-4.593-0.038-9.223-0.073-13.845
		c-0.163-21.391-0.331-43.51,2.666-58.205c0.017-0.083,0.032-0.165,0.046-0.248l31.445-183.601h13.009
		c12.361,0,16.811-1.83,19.308-3.425c2.026-1.295,9.941-5.672,14.767-8.298C371.812,12.917,373.245,8.058,371.134,4.178z
		 M87.101,379.168c-8.822,0-16-7.178-16-16h23.69c2.341,5.596,5.154,10.948,8.395,16H87.101z M190.864,411.209
		c-48.573,0-88.089-39.517-88.089-88.089c0-48.572,39.517-88.089,88.089-88.089c48.572,0,88.089,39.517,88.089,88.089
		C278.953,371.693,239.436,411.209,190.864,411.209z"/>
	<path d="M166.767,323.12c0-4.418-3.582-8-8-8h-31.667c-4.418,0-8,3.582-8,8s3.582,8,8,8h31.667
		C163.186,331.12,166.767,327.538,166.767,323.12z"/>
	<path d="M215.101,323.12c0,4.418,3.582,8,8,8h31.667c4.418,0,8-3.582,8-8s-3.582-8-8-8h-31.667
		C218.682,315.12,215.101,318.701,215.101,323.12z"/>
	<path d="M178.851,344.049c-3.826-2.209-8.719-0.898-10.928,2.928l-15.833,27.424c-2.209,3.826-0.898,8.719,2.928,10.928
		c1.26,0.728,2.635,1.073,3.993,1.073c2.765,0,5.454-1.435,6.936-4.001l15.833-27.424
		C183.988,351.151,182.677,346.258,178.851,344.049z"/>
	<path d="M203.017,302.191c1.26,0.728,2.635,1.073,3.993,1.073c2.765,0,5.454-1.435,6.936-4.001l15.833-27.424
		c2.209-3.826,0.898-8.719-2.928-10.928c-3.826-2.209-8.719-0.898-10.928,2.928l-15.833,27.424
		C197.88,295.089,199.191,299.982,203.017,302.191z"/>
	<path d="M213.946,346.977c-2.209-3.826-7.103-5.135-10.928-2.928c-3.826,2.209-5.137,7.102-2.928,10.928l15.833,27.424
		c1.482,2.566,4.171,4.001,6.936,4.001c1.357,0,2.733-0.346,3.993-1.073c3.826-2.209,5.137-7.102,2.928-10.928L213.946,346.977z"/>
	<path d="M165.946,263.839c-2.209-3.826-7.103-5.135-10.928-2.928c-3.826,2.209-5.137,7.102-2.928,10.928l15.833,27.424
		c1.482,2.566,4.171,4.001,6.936,4.001c1.357,0,2.733-0.346,3.993-1.073c3.826-2.209,5.137-7.102,2.928-10.928L165.946,263.839z"/>
	<path d="M190.867,315.122c-2.11,0-4.17,0.85-5.66,2.34c-1.49,1.49-2.34,3.55-2.34,5.66c0,2.1,0.85,4.17,2.34,5.65
		c1.49,1.49,3.55,2.35,5.66,2.35c2.1,0,4.16-0.86,5.65-2.35c1.49-1.48,2.35-3.55,2.35-5.65c0-2.11-0.86-4.17-2.35-5.66
		C195.027,315.971,192.967,315.122,190.867,315.122z"/>
</g>
</svg>
